HIERARCHY
ROOT joint_Root
{
	OFFSET 0.0 0.0 0.0
	CHANNELS 6 Xposition Yposition Zposition Zrotation Xrotation Yrotation 
	JOINT Hips
	{
		OFFSET -17.1583 93.1646 452.98
		CHANNELS 6 Xposition Yposition Zposition Zrotation Xrotation Yrotation 
		JOINT Spine
		{
			OFFSET 15.7357 0.0 0.0
			CHANNELS 6 Xposition Yposition Zposition Zrotation Xrotation Yrotation 
			JOINT Chest
			{
				OFFSET 8.98455 -0.406207 0.0
				CHANNELS 6 Xposition Yposition Zposition Zrotation Xrotation Yrotation 
				JOINT Neck
				{
					OFFSET 16.3773 0.0 0.0
					CHANNELS 6 Xposition Yposition Zposition Zrotation Xrotation Yrotation 
					JOINT Head
					{
						OFFSET 6.45672 0.0 0.0
						CHANNELS 6 Xposition Yposition Zposition Zrotation Xrotation Yrotation 
						End Site
						{
							OFFSET 0.0 0.0 0.0
						}
					}
				}
				JOINT Shoulder_L
				{
					OFFSET 12.9942 -0.242716 4.98039
					CHANNELS 6 Xposition Yposition Zposition Zrotation Xrotation Yrotation 
					JOINT UpperArm_L
					{
						OFFSET 5.34809 0.0 0.0
						CHANNELS 6 Xposition Yposition Zposition Zrotation Xrotation Yrotation 
						JOINT LowerArm_L
						{
							OFFSET 24.3286 1.87007e-05 0.0
							CHANNELS 6 Xposition Yposition Zposition Zrotation Xrotation Yrotation 
							JOINT Hand_L
							{
								OFFSET 22.2916 0.0 0.0
								CHANNELS 6 Xposition Yposition Zposition Zrotation Xrotation Yrotation 
								End Site
								{
									OFFSET 0.0 0.0 0.0
								}
							}
						}
					}
				}
				JOINT Shoulder_R
				{
					OFFSET 12.9945 -0.242716 -4.98039
					CHANNELS 6 Xposition Yposition Zposition Zrotation Xrotation Yrotation 
					JOINT UpperArm_R
					{
						OFFSET -5.34813 0.0 0.0
						CHANNELS 6 Xposition Yposition Zposition Zrotation Xrotation Yrotation 
						JOINT LowerArm_R
						{
							OFFSET -24.3289 0.000322201 0.0
							CHANNELS 6 Xposition Yposition Zposition Zrotation Xrotation Yrotation 
							JOINT Hand_R
							{
								OFFSET -22.2915 -0.000108084 0.0
								CHANNELS 6 Xposition Yposition Zposition Zrotation Xrotation Yrotation 
								End Site
								{
									OFFSET 0.0 0.0 0.0
								}
							}
						}
					}
				}
			}
		}
		JOINT UpperLeg_L
		{
			OFFSET -2.19248 -6.46944 0.0
			CHANNELS 6 Xposition Yposition Zposition Zrotation Xrotation Yrotation 
			JOINT LowerLeg_L
			{
				OFFSET 39.0811 0.0 -1.23785e-05
				CHANNELS 6 Xposition Yposition Zposition Zrotation Xrotation Yrotation 
				JOINT Foot_L
				{
					OFFSET 40.9854 0.0 -1.26872e-05
					CHANNELS 6 Xposition Yposition Zposition Zrotation Xrotation Yrotation 
					JOINT Toes_L
					{
						OFFSET 11.7543 0.0 0.0
						CHANNELS 6 Xposition Yposition Zposition Zrotation Xrotation Yrotation 
						End Site
						{
							OFFSET 0.0 0.0 0.0
						}
					}
				}
			}
		}
		JOINT UpperLeg_R
		{
			OFFSET -2.19251 6.46944 0.0
			CHANNELS 6 Xposition Yposition Zposition Zrotation Xrotation Yrotation 
			JOINT LowerLeg_R
			{
				OFFSET -39.0811 -0.00228153 -0.0401928
				CHANNELS 6 Xposition Yposition Zposition Zrotation Xrotation Yrotation 
				JOINT Foot_R
				{
					OFFSET -40.9854 0.0 0.0
					CHANNELS 6 Xposition Yposition Zposition Zrotation Xrotation Yrotation 
					JOINT Toes_R
					{
						OFFSET -11.7543 0.0 0.0
						CHANNELS 6 Xposition Yposition Zposition Zrotation Xrotation Yrotation 
						End Site
						{
							OFFSET 0.0 0.0 0.0
						}
					}
				}
			}
		}
	}
}
MOTION
Frames:	9
Frame Time:	0.0333333
0.000000 0.000000 0.000000 0.000000 0.000000 -0.000000 3.793690 92.726900 -0.909164 89.311900 2.916850 6.178050 15.735700 0.000005 -0.000001 100.650000 85.958200 -100.152000 8.984550 -0.406207 -0.000000 0.172402 1.460500 0.992512 16.377300 -0.000001 -0.000001 7.248310 -0.035656 -0.316952 6.456720 -0.000001 -0.000000 -8.572680 -2.536690 1.292520 12.994200 -0.242716 4.980390 -93.519800 10.365200 -71.126000 5.348090 -0.000007 -0.000001 -70.573500 23.048400 -7.946210 24.328600 0.000019 0.000005 7.513840 28.195400 -15.598200 22.291600 -0.000001 0.000005 -8.774690 5.154000 3.827400 12.994500 -0.242716 -4.980390 87.864900 6.126560 -70.744700 -5.348130 -0.000001 -0.000004 -69.285200 30.724900 -5.450450 -24.328900 0.000322 -0.000009 0.920010 3.327520 -15.481500 -22.291500 -0.000108 -0.000004 0.095225 5.298550 0.112989 -2.192480 -6.469440 -0.000000 -177.374000 -5.715280 1.210820 39.081100 -0.000007 -0.000012 0.090357 -0.249506 19.907700 40.985400 -0.000006 -0.000013 3.152410 14.112000 -69.453600 11.754300 -0.000000 0.000003 -0.001382 0.188326 -8.936940 -2.192510 6.469440 -0.000001 171.403000 10.482700 -174.747000 -39.081100 -0.002282 -0.040193 -0.006212 0.038107 14.060800 -40.985400 0.000008 0.000006 -11.132600 7.362970 -66.396500 -11.754300 -0.000006 -0.000006 -0.010886 0.277813 -5.284730
0.000000 0.000000 0.000000 0.000000 0.000000 -0.000000 3.779330 92.726300 -0.831073 89.304900 2.696130 5.972040 15.735700 0.000005 -0.000001 100.148000 85.996400 -99.362300 8.984550 -0.406207 -0.000000 0.107256 1.357960 1.570030 16.377300 -0.000001 -0.000001 6.608080 0.044117 0.485729 6.456720 -0.000001 -0.000000 -9.145630 -2.325210 2.811330 12.994200 -0.242716 4.980390 -93.484600 10.262000 -71.129300 5.348090 -0.000007 -0.000001 -69.994900 22.623500 -9.106160 24.328600 0.000019 0.000005 7.885640 31.964900 -14.663300 22.291600 -0.000001 0.000005 -13.388000 5.240220 1.639090 12.994500 -0.242716 -4.980390 87.873000 6.094210 -70.717900 -5.348130 -0.000001 -0.000004 -68.952400 29.678600 -4.999210 -24.328900 0.000322 -0.000009 0.940609 3.280170 -16.027100 -22.291500 -0.000108 -0.000004 0.056508 5.301990 0.016525 -2.192480 -6.469440 -0.000000 -177.334000 -5.917980 1.117350 39.081100 -0.000007 -0.000012 0.090635 -0.251124 19.845500 40.985400 -0.000006 -0.000013 3.132550 14.118800 -69.491300 11.754300 -0.000000 0.000003 -0.001282 0.186963 -8.992350 -2.192510 6.469440 -0.000001 171.380000 10.768900 -174.914000 -39.081100 -0.002282 -0.040193 -0.005466 0.035232 14.020600 -40.985400 0.000008 0.000006 -11.024300 7.845460 -66.322700 -11.754300 -0.000006 -0.000006 -0.010618 0.275869 -5.364290
0.000000 0.000000 0.000000 0.000000 0.000000 -0.000000 3.738320 92.754400 -0.749514 89.305400 2.659970 5.553000 15.735700 0.000005 -0.000001 99.186100 86.168000 -98.066500 8.984550 -0.406207 -0.000000 -0.210342 1.145310 2.240180 16.377300 -0.000001 -0.000001 5.719400 0.319667 1.254860 6.456720 -0.000001 -0.000000 -9.660460 -2.092030 4.963420 12.994200 -0.242716 4.980390 -93.241900 9.512170 -71.080600 5.348090 -0.000007 -0.000001 -68.987100 21.060800 -11.290500 24.328600 0.000019 0.000005 7.344000 35.754200 -12.440300 22.291600 -0.000001 0.000005 -19.964300 5.339390 -1.121010 12.994500 -0.242716 -4.980390 87.890400 5.999080 -70.584900 -5.348130 -0.000001 -0.000004 -68.562200 28.404800 -4.500540 -24.328900 0.000322 -0.000009 1.103980 3.742530 -16.462600 -22.291500 -0.000108 -0.000004 0.053037 5.301810 0.021555 -2.192480 -6.469440 -0.000000 -177.288000 -6.197880 0.901133 39.081100 -0.000007 -0.000012 0.090272 -0.253382 19.609500 40.985400 -0.000006 -0.000013 3.114800 14.355600 -69.640100 11.754300 -0.000000 0.000003 -0.001302 0.187240 -8.981080 -2.192510 6.469440 -0.000001 171.311000 11.389700 -175.102000 -39.081100 -0.002282 -0.040193 -0.005780 0.037434 13.681000 -40.985400 0.000008 0.000006 -11.342500 8.482330 -65.984300 -11.754300 -0.000006 -0.000006 -0.010547 0.275349 -5.385550
0.000000 0.000000 0.000000 0.000000 0.000000 -0.000000 3.669240 92.786700 -0.624028 89.283500 2.677350 5.103490 15.735700 0.000005 -0.000001 97.763500 86.385600 -96.217600 8.984550 -0.406207 -0.000000 -0.613133 0.863311 3.094870 16.377300 -0.000001 -0.000001 4.717860 0.679382 2.159360 6.456720 -0.000001 -0.000000 -10.351400 -1.678380 7.197330 12.994200 -0.242716 4.980390 -92.910000 8.518860 -71.060200 5.348090 -0.000007 -0.000001 -67.444100 16.300700 -14.092600 24.328600 0.000019 0.000005 5.841510 38.371000 -9.360000 22.291600 -0.000001 0.000005 -26.556600 5.377420 -2.209420 12.994500 -0.242716 -4.980390 87.930400 5.843430 -70.458000 -5.348130 -0.000001 -0.000004 -68.052000 26.674900 -4.122100 -24.328900 0.000322 -0.000009 1.354400 4.564490 -16.558600 -22.291500 -0.000108 -0.000004 0.111088 5.303240 -0.019027 -2.192480 -6.469440 -0.000000 -177.168000 -6.614290 0.687721 39.081100 -0.000007 -0.000012 0.085850 -0.245085 19.304900 40.985400 -0.000006 -0.000013 3.103030 14.797200 -69.653100 11.754300 -0.000000 0.000003 -0.001332 0.187651 -8.964390 -2.192510 6.469440 -0.000001 171.314000 11.998700 -175.227000 -39.081100 -0.002282 -0.040193 -0.006128 0.040301 13.212000 -40.985400 0.000008 0.000006 -11.567800 8.993390 -65.590500 -11.754300 -0.000006 -0.000006 -0.010268 0.273300 -5.469390
0.000000 0.000000 0.000000 0.000000 0.000000 -0.000000 3.590580 92.842600 -0.450613 89.202800 2.717910 4.611580 15.735700 0.000005 -0.000001 95.256500 86.642200 -93.165100 8.984550 -0.406207 -0.000000 -1.083460 0.453699 4.185480 16.377300 -0.000001 -0.000001 3.480100 1.119010 3.069320 6.456720 -0.000001 -0.000000 -11.062500 -1.111920 9.652370 12.994200 -0.242716 4.980390 -92.577400 7.522210 -71.024200 5.348090 -0.000007 -0.000001 -65.596300 8.443460 -16.970500 24.328600 0.000019 0.000005 3.978220 39.740600 -6.208320 22.291600 -0.000001 0.000005 -28.604000 5.331480 -0.833655 12.994500 -0.242716 -4.980390 87.944400 5.774590 -70.366900 -5.348130 -0.000001 -0.000004 -67.062500 25.143600 -3.986380 -24.328900 0.000322 -0.000009 1.435680 4.900240 -16.363200 -22.291500 -0.000108 -0.000004 0.359560 5.301900 0.018868 -2.192480 -6.469440 -0.000000 -176.940000 -7.312950 0.582947 39.081100 -0.000007 -0.000012 0.078936 -0.231845 18.802300 40.985400 -0.000006 -0.000013 3.117030 15.523500 -69.658500 11.754300 -0.000000 0.000003 -0.001415 0.188769 -8.918940 -2.192510 6.469440 -0.000001 171.415000 12.339100 -175.126000 -39.081100 -0.002282 -0.040193 -0.007201 0.048601 12.232000 -40.985400 0.000008 0.000006 -12.193600 9.176240 -64.850600 -11.754300 -0.000006 -0.000006 -0.010354 0.273933 -5.443500
0.000000 0.000000 0.000000 0.000000 0.000000 -0.000000 3.527880 92.913200 -0.252955 89.043800 2.780000 4.115050 15.735700 0.000005 -0.000001 91.218400 86.884300 -88.456900 8.984550 -0.406207 -0.000000 -1.527800 -0.091331 5.520140 16.377300 -0.000001 -0.000001 1.990310 1.534190 4.092850 6.456720 -0.000001 -0.000000 -11.813300 -0.525856 12.208700 12.994200 -0.242716 4.980390 -92.289800 6.717590 -71.128100 5.348090 -0.000007 -0.000001 -62.643100 1.041250 -19.568400 24.328600 0.000019 0.000005 2.951110 40.078800 -4.577770 22.291600 -0.000001 0.000005 -25.037900 5.296550 0.152665 12.994500 -0.242716 -4.980390 87.942700 5.756870 -70.296900 -5.348130 -0.000001 -0.000004 -65.752200 23.265500 -4.174750 -24.328900 0.000322 -0.000009 1.569760 5.541340 -15.854400 -22.291500 -0.000108 -0.000004 0.742185 5.298310 0.119714 -2.192480 -6.469440 -0.000000 -176.648000 -7.948050 0.511892 39.081100 -0.000007 -0.000012 0.071929 -0.218615 18.212400 40.985400 -0.000006 -0.000013 3.102870 16.212000 -69.586600 11.754300 -0.000000 0.000003 -0.001498 0.189872 -8.874090 -2.192510 6.469440 -0.000001 171.570000 12.750600 -174.916000 -39.081100 -0.002282 -0.040193 -0.006838 0.052124 11.045900 -40.985400 0.000008 0.000006 -12.887400 9.447510 -63.879700 -11.754300 -0.000006 -0.000006 -0.010058 0.271740 -5.533200
0.000000 0.000000 0.000000 0.000000 0.000000 -0.000000 3.459840 92.992300 -0.038983 88.817900 2.881560 3.739980 15.735700 0.000005 -0.000001 86.079000 87.044100 -82.597500 8.984550 -0.406207 -0.000000 -1.837480 -0.695639 6.950510 16.377300 -0.000001 -0.000001 0.587833 1.708700 5.370980 6.456720 -0.000001 -0.000000 -12.876900 -0.145105 14.795700 12.994200 -0.242716 4.980390 -91.973000 5.843840 -71.308000 5.348090 -0.000007 -0.000001 -58.929600 -5.631640 -21.914600 24.328600 0.000019 0.000005 2.767680 39.529900 -4.343420 22.291600 -0.000001 0.000005 -18.866400 5.281440 0.575792 12.994500 -0.242716 -4.980390 87.942200 5.745460 -70.256400 -5.348130 -0.000001 -0.000004 -64.416700 20.783800 -4.569860 -24.328900 0.000322 -0.000009 1.717940 6.394330 -15.082800 -22.291500 -0.000108 -0.000004 1.277680 5.292870 0.270953 -2.192480 -6.469440 -0.000000 -176.298000 -8.433320 0.599391 39.081100 -0.000007 -0.000012 0.065366 -0.206466 17.567700 40.985400 -0.000006 -0.000013 3.064050 16.815700 -69.510300 11.754300 -0.000000 0.000003 -0.001388 0.188399 -8.933970 -2.192510 6.469440 -0.000001 171.809000 13.241500 -174.789000 -39.081100 -0.002282 -0.040193 -0.006960 0.056794 10.277800 -40.985400 0.000008 0.000006 -13.137700 9.717500 -63.061400 -11.754300 -0.000006 -0.000006 -0.009515 0.267645 -5.700650
0.000000 0.000000 0.000000 0.000000 0.000000 -0.000000 3.400900 93.047200 0.166997 88.681900 2.918730 3.375590 15.735700 0.000005 -0.000001 81.488600 87.162500 -77.341000 8.984550 -0.406207 -0.000000 -2.096890 -1.196240 8.272510 16.377300 -0.000001 -0.000001 -0.625211 1.600880 6.852620 6.456720 -0.000001 -0.000000 -14.067200 -0.291263 17.225800 12.994200 -0.242716 4.980390 -91.619900 4.836330 -71.456700 5.348090 -0.000007 -0.000001 -54.973600 -12.445200 -24.398000 24.328600 0.000019 0.000005 2.639340 38.451100 -4.239490 22.291600 -0.000001 0.000005 -13.166800 5.265790 1.004650 12.994500 -0.242716 -4.980390 87.882500 5.864600 -70.107300 -5.348130 -0.000001 -0.000004 -63.051700 17.969000 -5.041650 -24.328900 0.000322 -0.000009 1.763660 6.952230 -14.280900 -22.291500 -0.000108 -0.000004 2.125040 5.285880 0.464048 -2.192480 -6.469440 -0.000000 -176.074000 -8.822320 0.646817 39.081100 -0.000007 -0.000012 0.059188 -0.193253 17.028500 40.985400 -0.000006 -0.000013 3.003030 17.193500 -69.460900 11.754300 -0.000000 0.000003 -0.001607 0.191311 -8.815580 -2.192510 6.469440 -0.000001 172.038000 13.360700 -174.704000 -39.081100 -0.002282 -0.040193 -0.006797 0.059953 9.596550 -40.985400 0.000008 0.000006 -13.212500 9.678570 -62.592200 -11.754300 -0.000006 -0.000006 -0.008972 0.263457 -5.871850
0.000000 0.000000 0.000000 0.000000 0.000000 -0.000000 3.339900 93.052000 0.349064 88.645000 2.758470 3.030220 15.735700 0.000005 -0.000001 77.478600 87.256900 -72.732100 8.984550 -0.406207 -0.000000 -2.326350 -1.606490 9.460340 16.377300 -0.000001 -0.000001 -1.666510 1.310420 8.283020 6.456720 -0.000001 -0.000000 -14.909000 -0.741954 19.430400 12.994200 -0.242716 4.980390 -91.252200 3.731950 -71.436300 5.348090 -0.000007 -0.000001 -51.508300 -20.701200 -27.626900 24.328600 0.000019 0.000005 1.918540 38.068100 -3.109520 22.291600 -0.000001 0.000005 -10.030500 5.238180 1.739260 12.994500 -0.242716 -4.980390 87.801900 6.005900 -69.854700 -5.348130 -0.000001 -0.000004 -61.759800 15.143500 -5.663060 -24.328900 0.000322 -0.000009 1.738560 7.272280 -13.492100 -22.291500 -0.000108 -0.000004 2.969530 5.276630 0.716930 -2.192480 -6.469440 -0.000000 -175.963000 -9.227440 0.550812 39.081100 -0.000007 -0.000012 0.054787 -0.181190 16.824100 40.985400 -0.000006 -0.000013 2.975840 17.451200 -69.492900 11.754300 -0.000000 0.000003 -0.001466 0.189442 -8.891580 -2.192510 6.469440 -0.000001 172.242000 13.055200 -174.716000 -39.081100 -0.002282 -0.040193 -0.006211 0.059689 9.091180 -40.985400 0.000008 0.000006 -13.180200 9.447880 -62.509000 -11.754300 -0.000006 -0.000006 -0.008970 0.263441 -5.872530
